<svg xmlns="http://www.w3.org/2000/svg" xmlns:xlink="http://www.w3.org/1999/xlink" width="546" zoomAndPan="magnify" viewBox="0 0 409.5 167.249994" height="223" preserveAspectRatio="xMidYMid meet" version="1.0"><defs><filter x="0%" y="0%" width="100%" height="100%" id="dd973dccae"><feColorMatrix values="0 0 0 0 1 0 0 0 0 1 0 0 0 0 1 0 0 0 1 0" color-interpolation-filters="sRGB"/></filter><g/><clipPath id="bf2cf76837"><path d="M 0.664062 0 L 408.335938 0 L 408.335938 166.503906 L 0.664062 166.503906 Z M 0.664062 0 " clip-rule="nonzero"/></clipPath><mask id="b4656c4588"><g filter="url(#dd973dccae)"><rect x="-40.95" width="491.4" fill="#000000" y="-16.724999" height="200.699993" fill-opacity="0.25"/></g></mask><clipPath id="18b37ff9d5"><path d="M 0.238281 0.230469 L 56.238281 0.230469 L 56.238281 56.230469 L 0.238281 56.230469 Z M 0.238281 0.230469 " clip-rule="nonzero"/></clipPath><clipPath id="79d10f49b7"><rect x="0" width="57" y="0" height="57"/></clipPath><clipPath id="f122df8916"><path d="M 196.414062 24.695312 L 227.773438 24.695312 L 227.773438 64.269531 L 196.414062 64.269531 Z M 196.414062 24.695312 " clip-rule="nonzero"/></clipPath></defs><g clip-path="url(#bf2cf76837)"><path fill="#ffffff" d="M 0.664062 0 L 408.335938 0 L 408.335938 166.503906 L 0.664062 166.503906 Z M 0.664062 0 " fill-opacity="1" fill-rule="nonzero"/></g><g mask="url(#b4656c4588)"><g transform="matrix(1, 0, 0, 1, 184, 55)"><g clip-path="url(#79d10f49b7)"><path fill="#1454b2" d="M 28.238281 2.28125 L 27.101562 18.375 L 28.238281 25.257812 L 29.375 18.375 L 28.238281 2.28125 " fill-opacity="1" fill-rule="nonzero"/><path fill="#1454b2" d="M 28.238281 54.183594 L 29.375 38.089844 L 28.238281 31.207031 L 27.101562 38.089844 L 28.238281 54.183594 " fill-opacity="1" fill-rule="nonzero"/><path fill="#1454b2" d="M 26.75 25.65625 L 24.296875 19.128906 L 15.261719 5.757812 L 22.324219 20.265625 L 26.75 25.65625 " fill-opacity="1" fill-rule="nonzero"/><path fill="#1454b2" d="M 29.726562 30.808594 L 32.183594 37.339844 L 41.214844 50.707031 L 34.152344 36.203125 L 29.726562 30.808594 " fill-opacity="1" fill-rule="nonzero"/><path fill="#1454b2" d="M 46.589844 46.582031 L 36.015625 34.398438 L 30.34375 30.335938 L 34.40625 36.007812 L 46.589844 46.582031 " fill-opacity="1" fill-rule="nonzero"/><path fill="#1454b2" d="M 25.664062 26.746094 L 20.269531 22.320312 L 5.765625 15.257812 L 19.132812 24.289062 L 25.664062 26.746094 " fill-opacity="1" fill-rule="nonzero"/><path fill="#1454b2" d="M 30.816406 29.71875 L 36.207031 34.148438 L 50.710938 41.207031 L 37.34375 32.175781 L 30.816406 29.71875 " fill-opacity="1" fill-rule="nonzero"/><path fill="#1454b2" d="M 31.113281 29.003906 C 31.175781 28.757812 31.210938 28.5 31.210938 28.234375 C 31.210938 27.964844 31.175781 27.707031 31.113281 27.464844 L 38.054688 26.78125 L 53.304688 21.515625 L 37.464844 24.582031 L 31.113281 27.464844 C 30.976562 26.953125 30.707031 26.492188 30.34375 26.128906 L 36.015625 22.066406 L 46.589844 9.882812 L 34.40625 20.457031 L 30.34375 26.128906 C 29.976562 25.765625 29.519531 25.496094 29.007812 25.359375 L 31.890625 19.003906 L 34.957031 3.167969 L 29.691406 18.417969 L 29.007812 25.359375 C 28.761719 25.292969 28.503906 25.257812 28.238281 25.257812 C 27.972656 25.257812 27.714844 25.292969 27.46875 25.359375 L 26.785156 18.417969 L 21.523438 3.167969 L 24.585938 19.003906 L 27.46875 25.359375 C 26.957031 25.496094 26.5 25.765625 26.136719 26.128906 L 22.074219 20.457031 L 9.890625 9.882812 L 20.464844 22.066406 L 26.136719 26.128906 C 25.773438 26.492188 25.503906 26.953125 25.367188 27.464844 L 19.011719 24.582031 L 3.171875 21.515625 L 18.421875 26.78125 L 25.367188 27.464844 C 25.300781 27.707031 25.265625 27.964844 25.265625 28.234375 C 25.265625 28.5 25.300781 28.757812 25.367188 29.003906 L 18.421875 29.683594 L 3.171875 34.949219 L 19.011719 31.882812 L 25.367188 29.003906 C 25.503906 29.515625 25.773438 29.972656 26.136719 30.335938 C 26.5 30.699219 26.957031 30.96875 27.46875 31.105469 L 24.585938 37.460938 L 21.523438 53.300781 L 26.785156 38.050781 L 27.46875 31.105469 C 27.714844 31.171875 27.972656 31.207031 28.238281 31.207031 C 28.503906 31.207031 28.761719 31.171875 29.007812 31.105469 L 29.691406 38.050781 L 34.957031 53.300781 L 31.890625 37.460938 L 29.007812 31.105469 C 29.519531 30.96875 29.976562 30.699219 30.34375 30.335938 C 30.707031 29.972656 30.976562 29.515625 31.113281 29.003906 L 37.464844 31.882812 L 53.304688 34.949219 L 38.054688 29.683594 L 31.113281 29.003906 " fill-opacity="1" fill-rule="nonzero"/><path fill="#1454b2" d="M 2.289062 28.234375 L 18.378906 29.371094 L 25.265625 28.234375 L 18.378906 27.09375 L 2.289062 28.234375 " fill-opacity="1" fill-rule="nonzero"/><path fill="#1454b2" d="M 54.1875 28.234375 L 38.097656 27.09375 L 31.210938 28.234375 L 38.097656 29.371094 L 54.1875 28.234375 " fill-opacity="1" fill-rule="nonzero"/><path fill="#1454b2" d="M 25.664062 29.71875 L 19.132812 32.175781 L 5.765625 41.207031 L 20.269531 34.148438 L 25.664062 29.71875 " fill-opacity="1" fill-rule="nonzero"/><path fill="#1454b2" d="M 30.816406 26.746094 L 37.34375 24.289062 L 50.710938 15.257812 L 36.207031 22.320312 L 30.816406 26.746094 " fill-opacity="1" fill-rule="nonzero"/><path fill="#1454b2" d="M 9.890625 46.582031 L 22.074219 36.007812 L 26.136719 30.335938 L 20.464844 34.398438 L 9.890625 46.582031 " fill-opacity="1" fill-rule="nonzero"/><path fill="#1454b2" d="M 26.75 30.808594 L 22.324219 36.203125 L 15.261719 50.707031 L 24.296875 37.339844 L 26.75 30.808594 " fill-opacity="1" fill-rule="nonzero"/><path fill="#1454b2" d="M 29.726562 25.65625 L 34.152344 20.265625 L 41.214844 5.757812 L 32.183594 19.128906 L 29.726562 25.65625 " fill-opacity="1" fill-rule="nonzero"/><g clip-path="url(#18b37ff9d5)"><path fill="#1454b2" d="M 53.195312 37.339844 C 52.621094 37.113281 51.96875 37.390625 51.730469 37.964844 C 51.492188 38.535156 51.757812 39.191406 52.320312 39.441406 C 51.660156 40.859375 50.871094 42.210938 49.980469 43.480469 C 49.480469 43.121094 48.785156 43.222656 48.410156 43.710938 C 48.035156 44.199219 48.117188 44.898438 48.59375 45.285156 C 47.589844 46.480469 46.484375 47.585938 45.289062 48.585938 C 44.902344 48.113281 44.207031 48.03125 43.71875 48.40625 C 43.226562 48.78125 43.128906 49.476562 43.488281 49.972656 C 42.214844 50.867188 40.863281 51.652344 39.445312 52.316406 C 39.195312 51.75 38.542969 51.488281 37.96875 51.722656 C 37.394531 51.960938 37.121094 52.613281 37.34375 53.191406 C 35.894531 53.71875 34.386719 54.128906 32.832031 54.398438 C 32.738281 53.789062 32.171875 53.359375 31.558594 53.441406 C 30.941406 53.523438 30.507812 54.082031 30.574219 54.695312 C 29.804688 54.761719 29.027344 54.796875 28.238281 54.796875 C 27.453125 54.796875 26.671875 54.761719 25.902344 54.695312 C 25.96875 54.082031 25.535156 53.523438 24.921875 53.441406 C 24.304688 53.359375 23.738281 53.789062 23.644531 54.398438 C 22.089844 54.128906 20.582031 53.71875 19.132812 53.191406 C 19.359375 52.613281 19.082031 51.960938 18.507812 51.722656 C 17.9375 51.488281 17.28125 51.75 17.03125 52.316406 C 15.613281 51.652344 14.261719 50.867188 12.988281 49.972656 C 13.347656 49.476562 13.25 48.78125 12.761719 48.40625 C 12.269531 48.03125 11.574219 48.113281 11.1875 48.585938 C 9.992188 47.585938 8.886719 46.480469 7.886719 45.285156 C 8.359375 44.898438 8.441406 44.199219 8.066406 43.710938 C 7.691406 43.222656 6.996094 43.121094 6.5 43.480469 C 5.605469 42.210938 4.820312 40.859375 4.15625 39.441406 C 4.71875 39.191406 4.984375 38.535156 4.75 37.964844 C 4.511719 37.390625 3.859375 37.113281 3.28125 37.339844 C 2.753906 35.890625 2.34375 34.378906 2.074219 32.824219 C 2.683594 32.734375 3.109375 32.167969 3.03125 31.550781 C 2.949219 30.9375 2.390625 30.5 1.777344 30.570312 C 1.710938 29.800781 1.675781 29.019531 1.675781 28.234375 C 1.675781 27.445312 1.710938 26.667969 1.777344 25.898438 C 2.390625 25.964844 2.949219 25.53125 3.03125 24.914062 C 3.109375 24.296875 2.683594 23.734375 2.074219 23.640625 C 2.34375 22.085938 2.753906 20.578125 3.28125 19.128906 C 3.859375 19.351562 4.511719 19.078125 4.75 18.503906 C 4.984375 17.929688 4.71875 17.273438 4.15625 17.027344 C 4.820312 15.605469 5.605469 14.253906 6.5 12.984375 C 6.996094 13.34375 7.691406 13.246094 8.066406 12.753906 C 8.441406 12.265625 8.359375 11.570312 7.886719 11.183594 C 8.886719 9.988281 9.992188 8.882812 11.1875 7.878906 C 11.574219 8.351562 12.269531 8.4375 12.761719 8.0625 C 13.25 7.683594 13.347656 6.988281 12.988281 6.492188 C 14.261719 5.597656 15.613281 4.8125 17.03125 4.152344 C 17.28125 4.714844 17.9375 4.980469 18.507812 4.742188 C 19.082031 4.503906 19.359375 3.851562 19.132812 3.277344 C 20.582031 2.746094 22.089844 2.339844 23.644531 2.066406 C 23.738281 2.679688 24.304688 3.105469 24.921875 3.023438 C 25.535156 2.945312 25.96875 2.386719 25.902344 1.769531 C 26.671875 1.703125 27.453125 1.667969 28.238281 1.667969 C 29.027344 1.667969 29.804688 1.703125 30.574219 1.769531 C 30.507812 2.386719 30.941406 2.945312 31.558594 3.023438 C 32.171875 3.105469 32.738281 2.679688 32.832031 2.066406 C 34.386719 2.339844 35.894531 2.746094 37.34375 3.277344 C 37.121094 3.851562 37.394531 4.503906 37.96875 4.742188 C 38.542969 4.980469 39.195312 4.714844 39.445312 4.152344 C 40.863281 4.8125 42.214844 5.597656 43.488281 6.492188 C 43.128906 6.988281 43.226562 7.683594 43.71875 8.0625 C 44.207031 8.4375 44.902344 8.351562 45.289062 7.878906 C 46.484375 8.882812 47.589844 9.988281 48.59375 11.183594 C 48.117188 11.570312 48.035156 12.265625 48.410156 12.753906 C 48.785156 13.246094 49.480469 13.34375 49.980469 12.984375 C 50.871094 14.253906 51.660156 15.605469 52.320312 17.027344 C 51.757812 17.273438 51.492188 17.929688 51.730469 18.503906 C 51.96875 19.078125 52.621094 19.351562 53.195312 19.128906 C 53.726562 20.578125 54.132812 22.085938 54.40625 23.640625 C 53.792969 23.734375 53.367188 24.296875 53.445312 24.914062 C 53.527344 25.53125 54.085938 25.964844 54.699219 25.898438 C 54.769531 26.667969 54.800781 27.445312 54.800781 28.234375 C 54.800781 29.019531 54.769531 29.800781 54.699219 30.570312 C 54.085938 30.5 53.527344 30.9375 53.445312 31.550781 C 53.367188 32.167969 53.792969 32.734375 54.40625 32.824219 C 54.132812 34.378906 53.726562 35.890625 53.195312 37.339844 Z M 54.039062 17.332031 C 52.628906 14 50.609375 11.003906 48.039062 8.433594 C 45.46875 5.863281 42.472656 3.84375 39.136719 2.433594 C 35.6875 0.972656 32.019531 0.230469 28.238281 0.230469 C 24.457031 0.230469 20.792969 0.972656 17.339844 2.433594 C 14.003906 3.84375 11.011719 5.863281 8.4375 8.433594 C 5.867188 11.003906 3.847656 14 2.4375 17.332031 C 0.976562 20.785156 0.238281 24.453125 0.238281 28.234375 C 0.238281 32.011719 0.976562 35.679688 2.4375 39.132812 C 3.847656 42.46875 5.867188 45.460938 8.4375 48.03125 C 11.011719 50.605469 14.003906 52.621094 17.339844 54.035156 C 20.792969 55.492188 24.457031 56.234375 28.238281 56.234375 C 32.019531 56.234375 35.6875 55.492188 39.136719 54.035156 C 42.472656 52.621094 45.46875 50.605469 48.039062 48.03125 C 50.609375 45.460938 52.628906 42.46875 54.039062 39.132812 C 55.5 35.679688 56.238281 32.011719 56.238281 28.234375 C 56.238281 24.453125 55.5 20.785156 54.039062 17.332031 " fill-opacity="1" fill-rule="nonzero"/></g></g></g></g><g fill="#ffa500" fill-opacity="1"><g transform="translate(110.563626, 105.905118)"><g><path d="M 55.875 2.125 C 54.394531 3.59375 52.898438 4.328125 51.390625 4.328125 C 48.640625 4.328125 45.414062 3.390625 41.71875 1.515625 C 38.019531 -0.347656 34.832031 -2.570312 32.15625 -5.15625 C 29.476562 -7.738281 28.140625 -9.953125 28.140625 -11.796875 L 28.140625 -19.96875 L 12.15625 -5.90625 C 10.113281 -4.101562 8.570312 -3.203125 7.53125 -3.203125 C 6.675781 -3.203125 5.644531 -3.554688 4.4375 -4.265625 C 3.226562 -4.972656 1.960938 -5.941406 0.640625 -7.171875 L 1.703125 -8.75 C 2.554688 -7.988281 3.410156 -7.609375 4.265625 -7.609375 C 4.972656 -7.609375 5.800781 -7.9375 6.75 -8.59375 L 16.625 -16.921875 C 14.632812 -17.535156 12.679688 -18.515625 10.765625 -19.859375 C 8.847656 -21.210938 7.296875 -22.707031 6.109375 -24.34375 C 4.921875 -25.976562 4.328125 -27.4375 4.328125 -28.71875 L 4.328125 -43.28125 L -1 -43.28125 L -1 -48.96875 L 28.296875 -48.96875 L 34.046875 -43.28125 L 34.046875 -7.890625 C 34.046875 -6.847656 34.800781 -5.625 36.3125 -4.21875 C 37.832031 -2.820312 39.625 -1.613281 41.6875 -0.59375 C 43.75 0.414062 45.488281 0.921875 46.90625 0.921875 C 47.570312 0.921875 48.234375 0.742188 48.890625 0.390625 C 49.554688 0.0351562 50.148438 -0.492188 50.671875 -1.203125 Z M 37.25 -43.28125 L 31.703125 -48.96875 L 42.21875 -48.96875 L 42.21875 -43.28125 Z M 10.171875 -25.515625 C 10.171875 -24.046875 10.785156 -22.800781 12.015625 -21.78125 C 13.242188 -20.757812 14.6875 -20.25 16.34375 -20.25 C 18.332031 -20.25 20.378906 -20.925781 22.484375 -22.28125 C 24.597656 -23.632812 26.484375 -25.492188 28.140625 -27.859375 L 28.140625 -43.28125 L 10.171875 -43.28125 Z M 10.171875 -25.515625 "/></g></g></g><g fill="#ffa500" fill-opacity="1"><g transform="translate(151.856374, 105.905118)"><g><path d="M 29.78125 -43.28125 L 29.78125 -31.625 C 32.769531 -34.945312 35.519531 -36.609375 38.03125 -36.609375 C 39.726562 -36.609375 41.488281 -35.957031 43.3125 -34.65625 C 45.144531 -33.351562 46.648438 -31.726562 47.828125 -29.78125 C 49.015625 -27.84375 49.609375 -25.972656 49.609375 -24.171875 C 49.609375 -22.554688 49.0625 -20.96875 47.96875 -19.40625 C 46.882812 -17.84375 45.453125 -16.503906 43.671875 -15.390625 C 41.898438 -14.273438 40.085938 -13.625 38.234375 -13.4375 L 34.90625 -18.046875 C 37.789062 -18.523438 40.203125 -19.722656 42.140625 -21.640625 C 44.085938 -23.554688 45.0625 -25.703125 45.0625 -28.078125 C 45.0625 -29.117188 44.691406 -30.050781 43.953125 -30.875 C 43.222656 -31.707031 42.363281 -32.125 41.375 -32.125 C 39.613281 -32.125 37.738281 -31.378906 35.75 -29.890625 C 33.757812 -28.398438 31.769531 -26.328125 29.78125 -23.671875 L 29.78125 -7.890625 C 29.78125 -6.847656 30.550781 -5.625 32.09375 -4.21875 C 33.632812 -2.820312 35.445312 -1.613281 37.53125 -0.59375 C 39.613281 0.414062 41.363281 0.921875 42.78125 0.921875 C 43.875 0.921875 45.082031 0.210938 46.40625 -1.203125 L 51.671875 2.125 C 50.296875 3.59375 48.804688 4.328125 47.203125 4.328125 C 44.453125 4.328125 41.226562 3.390625 37.53125 1.515625 C 33.832031 -0.347656 30.628906 -2.570312 27.921875 -5.15625 C 25.222656 -7.738281 23.875 -9.953125 23.875 -11.796875 L 23.875 -19.1875 C 21.320312 -16.632812 18.625 -15.359375 15.78125 -15.359375 C 13.601562 -15.359375 11.46875 -15.972656 9.375 -17.203125 C 7.289062 -18.429688 5.585938 -20.003906 4.265625 -21.921875 C 2.941406 -23.847656 2.28125 -25.757812 2.28125 -27.65625 C 2.28125 -29.164062 2.820312 -30.644531 3.90625 -32.09375 C 5 -33.539062 6.394531 -34.710938 8.09375 -35.609375 C 9.800781 -36.503906 11.535156 -36.953125 13.296875 -36.953125 L 17.125 -36.953125 C 18.164062 -36.953125 19.828125 -35.582031 22.109375 -32.84375 L 21.53125 -31.5625 C 20.207031 -32.320312 19.117188 -32.703125 18.265625 -32.703125 C 16.367188 -32.703125 14.53125 -32.296875 12.75 -31.484375 C 10.976562 -30.679688 9.546875 -29.613281 8.453125 -28.28125 C 7.367188 -26.957031 6.828125 -25.5625 6.828125 -24.09375 C 6.828125 -22.957031 7.332031 -21.960938 8.34375 -21.109375 C 9.363281 -20.253906 10.585938 -19.828125 12.015625 -19.828125 C 14.097656 -19.828125 16.179688 -20.40625 18.265625 -21.5625 C 20.347656 -22.726562 22.21875 -24.378906 23.875 -26.515625 L 23.875 -43.28125 L -1 -43.28125 L -1 -48.96875 L 24.453125 -48.96875 Z M 53.09375 -43.28125 L 33.125 -43.28125 L 27.71875 -48.96875 L 53.09375 -48.96875 Z M 53.09375 -43.28125 "/></g></g></g><g fill="#ffa500" fill-opacity="1"><g transform="translate(204.023115, 105.905118)"><g/></g></g><g fill="#008000" fill-opacity="1"><g transform="translate(219.30645, 105.905118)"><g><path d="M 38.171875 -43.28125 L -1 -43.28125 L -1 -48.96875 L 38.171875 -48.96875 Z M 13 -34.75 C 14.664062 -34.75 16.445312 -34.117188 18.34375 -32.859375 C 20.238281 -31.609375 21.921875 -29.894531 23.390625 -27.71875 C 23.910156 -29.613281 24.859375 -31.175781 26.234375 -32.40625 C 27.609375 -33.644531 29.097656 -34.265625 30.703125 -34.265625 C 31.742188 -34.265625 33.007812 -33.847656 34.5 -33.015625 C 36 -32.179688 37.53125 -31.007812 39.09375 -29.5 L 39.09375 -26.234375 C 38.238281 -27.410156 37.382812 -28.304688 36.53125 -28.921875 C 35.675781 -29.546875 34.894531 -29.859375 34.1875 -29.859375 C 33 -29.859375 31.894531 -29.347656 30.875 -28.328125 C 29.863281 -27.304688 29.0625 -25.96875 28.46875 -24.3125 C 27.875 -22.65625 27.578125 -20.878906 27.578125 -18.984375 L 27.578125 -16.984375 L 21.828125 -19.6875 C 21.828125 -20.632812 21.894531 -21.664062 22.03125 -22.78125 C 22.175781 -23.894531 22.269531 -24.664062 22.3125 -25.09375 C 21.5625 -26.414062 20.660156 -27.488281 19.609375 -28.3125 C 18.566406 -29.144531 17.550781 -29.5625 16.5625 -29.5625 C 15.238281 -29.5625 14.003906 -29.039062 12.859375 -28 C 11.722656 -26.957031 10.8125 -25.609375 10.125 -23.953125 C 9.4375 -22.296875 9.09375 -20.566406 9.09375 -18.765625 C 9.09375 -16.441406 10.003906 -13.878906 11.828125 -11.078125 C 13.660156 -8.285156 15.863281 -5.914062 18.4375 -3.96875 C 21.019531 -2.03125 23.378906 -1.0625 25.515625 -1.0625 C 26.273438 -1.0625 27.046875 -1.25 27.828125 -1.625 C 28.609375 -2.007812 29.234375 -2.535156 29.703125 -3.203125 L 34.1875 0.78125 C 32.863281 2.15625 31.160156 2.84375 29.078125 2.84375 C 25.515625 2.84375 21.765625 1.445312 17.828125 -1.34375 C 13.898438 -4.144531 10.609375 -7.582031 7.953125 -11.65625 C 5.304688 -15.726562 3.984375 -19.492188 3.984375 -22.953125 C 3.984375 -24.847656 4.421875 -26.707031 5.296875 -28.53125 C 6.171875 -30.363281 7.304688 -31.859375 8.703125 -33.015625 C 10.097656 -34.171875 11.53125 -34.75 13 -34.75 Z M 13 -34.75 "/></g></g></g><g fill="#008000" fill-opacity="1"><g transform="translate(256.477028, 105.905118)"><g><path d="M -1 -48.96875 L 28.296875 -48.96875 L 34.046875 -43.28125 L 34.046875 -7.890625 C 34.046875 -6.847656 34.800781 -5.625 36.3125 -4.21875 C 37.832031 -2.820312 39.625 -1.613281 41.6875 -0.59375 C 43.75 0.414062 45.488281 0.921875 46.90625 0.921875 C 47.570312 0.921875 48.234375 0.742188 48.890625 0.390625 C 49.554688 0.0351562 50.148438 -0.492188 50.671875 -1.203125 L 55.875 2.125 C 54.394531 3.59375 52.898438 4.328125 51.390625 4.328125 C 48.640625 4.328125 45.414062 3.390625 41.71875 1.515625 C 38.019531 -0.347656 34.832031 -2.570312 32.15625 -5.15625 C 29.476562 -7.738281 28.140625 -9.953125 28.140625 -11.796875 L 28.140625 -20.046875 C 27.003906 -18.910156 25.722656 -18.007812 24.296875 -17.34375 C 22.878906 -16.675781 21.554688 -16.34375 20.328125 -16.34375 C 18.054688 -16.34375 15.660156 -17.03125 13.140625 -18.40625 C 10.628906 -19.78125 8.53125 -21.453125 6.84375 -23.421875 C 5.164062 -25.390625 4.328125 -27.15625 4.328125 -28.71875 L 4.328125 -43.28125 L -1 -43.28125 Z M 31.703125 -48.96875 L 42.21875 -48.96875 L 42.21875 -43.28125 L 37.25 -43.28125 Z M 16.34375 -20.25 C 18.332031 -20.25 20.378906 -20.925781 22.484375 -22.28125 C 24.597656 -23.632812 26.484375 -25.492188 28.140625 -27.859375 L 28.140625 -43.28125 L 10.171875 -43.28125 L 10.171875 -25.515625 C 10.171875 -24.046875 10.785156 -22.800781 12.015625 -21.78125 C 13.242188 -20.757812 14.6875 -20.25 16.34375 -20.25 Z M 16.34375 -20.25 "/></g></g></g><path fill="#9bc9ff" d="M 216.449219 57.171875 L 207.816406 57.171875 C 207.097656 57.171875 206.515625 56.585938 206.515625 55.867188 L 206.515625 54.566406 L 217.75 54.566406 L 217.75 55.867188 C 217.75 56.585938 217.164062 57.171875 216.449219 57.171875 Z M 216.191406 57.792969 L 216.191406 59.097656 C 216.191406 59.816406 215.605469 60.398438 214.886719 60.398438 L 209.484375 60.398438 C 208.765625 60.398438 208.183594 59.816406 208.183594 59.097656 L 208.183594 57.792969 Z M 214.535156 61.019531 L 214.535156 62.324219 C 214.535156 63.042969 213.949219 63.625 213.234375 63.625 L 211.140625 63.625 C 210.421875 63.625 209.835938 63.042969 209.835938 62.324219 L 209.835938 61.019531 Z M 210.445312 42.757812 L 212.132812 39.835938 L 213.820312 42.757812 Z M 211.820312 53.945312 L 210.21875 53.945312 L 210.21875 43.378906 L 211.820312 43.378906 Z M 211.820312 53.945312 " fill-opacity="1" fill-rule="evenodd"/><g clip-path="url(#f122df8916)"><path fill="#1454b2" d="M 227.441406 34.515625 L 225.414062 35.6875 C 225.316406 35.742188 225.210938 35.769531 225.105469 35.769531 C 224.886719 35.769531 224.679688 35.65625 224.5625 35.457031 C 224.390625 35.160156 224.496094 34.777344 224.792969 34.605469 L 226.816406 33.4375 C 227.113281 33.265625 227.496094 33.367188 227.667969 33.664062 C 227.839844 33.964844 227.738281 34.34375 227.441406 34.515625 Z M 219.082031 29.351562 L 220.25 27.328125 C 220.421875 27.027344 220.804688 26.925781 221.101562 27.097656 C 221.398438 27.269531 221.503906 27.652344 221.328125 27.949219 L 220.160156 29.976562 C 220.046875 30.175781 219.835938 30.285156 219.621094 30.285156 C 219.515625 30.285156 219.40625 30.261719 219.308594 30.203125 C 219.011719 30.03125 218.910156 29.652344 219.082031 29.351562 Z M 199.699219 35.457031 C 199.585938 35.65625 199.375 35.769531 199.160156 35.769531 C 199.054688 35.769531 198.949219 35.742188 198.851562 35.6875 L 196.824219 34.515625 C 196.527344 34.34375 196.425781 33.964844 196.597656 33.664062 C 196.769531 33.367188 197.148438 33.265625 197.449219 33.4375 L 199.472656 34.605469 C 199.769531 34.777344 199.871094 35.160156 199.699219 35.457031 Z M 202.933594 27.949219 C 202.761719 27.652344 202.863281 27.269531 203.164062 27.097656 C 203.460938 26.925781 203.839844 27.027344 204.011719 27.328125 L 205.183594 29.351562 C 205.355469 29.652344 205.253906 30.03125 204.953125 30.203125 C 204.855469 30.261719 204.75 30.285156 204.644531 30.285156 C 204.429688 30.285156 204.21875 30.175781 204.105469 29.976562 Z M 211.507812 27.65625 L 211.507812 25.320312 C 211.507812 24.972656 211.789062 24.695312 212.132812 24.695312 C 212.476562 24.695312 212.753906 24.972656 212.753906 25.320312 L 212.753906 27.65625 C 212.753906 28 212.476562 28.28125 212.132812 28.28125 C 211.789062 28.28125 211.507812 28 211.507812 27.65625 Z M 219.902344 45.964844 C 218.917969 47.648438 217.808594 49.542969 217.480469 53.632812 L 214.980469 53.632812 L 214.980469 43.066406 C 214.980469 42.957031 214.953125 42.851562 214.898438 42.757812 L 212.671875 38.902344 C 212.5625 38.710938 212.355469 38.589844 212.132812 38.589844 C 211.910156 38.589844 211.703125 38.710938 211.59375 38.902344 L 209.367188 42.757812 C 209.3125 42.851562 209.285156 42.957031 209.285156 43.066406 L 209.285156 53.632812 L 206.785156 53.632812 C 206.457031 49.542969 205.347656 47.648438 204.363281 45.964844 C 203.503906 44.496094 202.828125 43.335938 202.828125 40.941406 C 202.828125 35.8125 207 31.636719 212.132812 31.636719 C 217.265625 31.636719 221.4375 35.8125 221.4375 40.941406 C 221.4375 43.335938 220.761719 44.496094 219.902344 45.964844 Z M 210.53125 43.691406 L 210.53125 53.632812 L 211.507812 53.632812 L 211.507812 43.691406 Z M 210.984375 42.445312 L 213.277344 42.445312 L 212.132812 40.460938 Z M 212.753906 53.632812 L 213.734375 53.632812 L 213.734375 43.691406 L 212.753906 43.691406 Z M 216.449219 56.859375 L 207.816406 56.859375 C 207.269531 56.859375 206.828125 56.414062 206.828125 55.867188 L 206.828125 54.878906 L 217.4375 54.878906 L 217.4375 55.867188 C 217.4375 56.414062 216.992188 56.859375 216.449219 56.859375 Z M 214.886719 60.085938 L 209.484375 60.085938 C 208.9375 60.085938 208.492188 59.644531 208.492188 59.097656 L 208.492188 58.105469 L 215.878906 58.105469 L 215.878906 59.097656 C 215.878906 59.644531 215.433594 60.085938 214.886719 60.085938 Z M 213.234375 63.3125 L 211.140625 63.3125 C 210.59375 63.3125 210.148438 62.871094 210.148438 62.324219 L 210.148438 61.332031 L 214.222656 61.332031 L 214.222656 62.324219 C 214.222656 62.871094 213.78125 63.3125 213.234375 63.3125 Z M 212.132812 30.390625 C 206.3125 30.390625 201.582031 35.125 201.582031 40.941406 C 201.582031 43.675781 202.410156 45.09375 203.289062 46.59375 C 204.246094 48.230469 205.332031 50.085938 205.582031 54.277344 L 205.582031 55.867188 C 205.582031 56.90625 206.289062 57.78125 207.25 58.03125 L 207.25 59.097656 C 207.25 60.128906 207.953125 61 208.902344 61.253906 L 208.902344 62.324219 C 208.902344 63.558594 209.90625 64.558594 211.140625 64.558594 L 213.234375 64.558594 C 214.464844 64.558594 215.46875 63.558594 215.46875 62.324219 L 215.46875 61.253906 C 216.421875 61 217.125 60.128906 217.125 59.097656 L 217.125 58 C 218.027344 57.714844 218.683594 56.867188 218.683594 55.867188 L 218.683594 54.277344 C 218.933594 50.085938 220.019531 48.230469 220.976562 46.59375 C 221.855469 45.09375 222.683594 43.675781 222.683594 40.941406 C 222.683594 35.125 217.949219 30.390625 212.132812 30.390625 Z M 212.132812 30.390625 " fill-opacity="1" fill-rule="evenodd"/></g></svg>